<svg version="1.1" id="Layer_1" xmlns="http://www.w3.org/2000/svg" xmlns:xlink="http://www.w3.org/1999/xlink" x="0px" y="0px"
	 width="100%" viewBox="0 0 1024 1024" enable-background="new 0 0 1024 1024" xml:space="preserve">
<path fill="#000000" opacity="1.000000" stroke="none" 
	d="
M654.000000,1025.000000 
	C436.000000,1025.000000 218.500000,1025.000000 1.000000,1025.000000 
	C1.000000,683.666687 1.000000,342.333344 1.000000,1.000000 
	C342.333344,1.000000 683.666687,1.000000 1025.000000,1.000000 
	C1025.000000,342.333344 1025.000000,683.666687 1025.000000,1025.000000 
	C901.500000,1025.000000 778.000000,1025.000000 654.000000,1025.000000 
M276.526947,643.931396 
	C276.707306,643.614929 276.887634,643.298401 276.996490,643.002441 
	C276.996490,643.002441 277.016724,643.073975 277.673248,642.861328 
	C281.143829,638.250366 284.614410,633.639404 288.022217,629.016418 
	C288.022217,629.016418 288.033447,629.079346 288.695190,628.894470 
	C289.157654,627.927734 289.620117,626.960999 289.991669,625.985291 
	C289.991669,625.985291 289.982483,626.076172 290.536957,625.945190 
	C290.713928,625.626099 290.890930,625.307007 291.001648,625.004272 
	C291.001648,625.004272 291.023438,625.068909 291.674103,624.783630 
	C292.065002,624.093689 292.427704,623.385986 292.851196,622.716675 
	C296.588776,616.809265 300.337158,610.908630 304.013397,605.006714 
	C304.013397,605.006714 304.018250,605.075500 304.684113,604.855286 
	C306.481262,602.239319 308.278412,599.623413 310.009857,597.004150 
	C310.009857,597.004150 310.017944,597.069397 310.666107,596.849182 
	C315.458649,591.555359 320.251221,586.261475 324.964844,580.969543 
	C324.964844,580.969543 324.966217,581.048523 325.632446,580.918762 
	C326.772308,579.937805 327.912170,578.956848 328.962402,577.955994 
	C328.962402,577.955994 328.941895,578.045471 329.317780,577.983704 
	C329.317780,577.983704 329.658630,577.813599 330.344513,578.008423 
	C330.638763,577.669495 330.933044,577.330505 331.675446,576.814392 
	C331.934937,576.587708 332.067017,576.302002 331.964355,575.975464 
	C331.964355,575.975464 331.981903,576.082886 332.679626,575.936279 
	C333.843079,575.261841 335.006500,574.587402 336.554565,573.919373 
	C336.554565,573.919373 336.908203,573.768005 337.558685,573.885376 
	C338.081818,573.549011 338.604980,573.212708 339.636353,572.943420 
	C339.968689,572.882019 340.301025,572.820679 341.264771,572.755371 
	C341.559753,572.466980 341.854736,572.178589 342.587708,571.928345 
	C342.587708,571.928345 342.998749,571.772278 343.781219,571.894714 
	C344.828339,571.949402 345.875458,572.004089 346.980103,572.821838 
	C346.588074,574.050110 346.279327,575.312561 345.790405,576.500977 
	C342.854828,583.636780 338.827423,590.515808 337.136230,597.930420 
	C333.746918,612.789856 331.144318,627.874329 329.120941,642.986938 
	C327.137177,657.803589 322.987061,671.792908 315.538727,684.645020 
	C307.801331,697.996033 298.312469,709.701660 283.604614,716.343933 
	C279.866547,718.032166 276.065399,721.427429 274.222443,725.026245 
	C271.554443,730.236267 270.775665,736.388306 268.955200,742.062866 
	C265.058075,754.210571 260.935181,766.285889 257.039581,778.434082 
	C249.832062,800.910278 242.694977,823.409241 235.621353,845.927917 
	C235.067719,847.690369 235.238556,849.680359 234.955780,852.892761 
	C244.411835,852.892761 253.159668,853.055908 261.896942,852.823364 
	C266.212341,852.708496 268.773163,850.522583 270.199982,845.887756 
	C277.820801,821.132690 288.970428,798.066162 303.973358,776.854065 
	C313.735138,763.052185 325.872589,752.054138 341.046967,744.749878 
	C356.754364,737.189087 372.960083,730.657471 388.617096,722.999451 
	C410.960968,712.070679 431.093262,698.171631 447.679779,679.159302 
	C456.575439,668.962585 463.804169,657.850159 469.961395,646.067871 
	C482.623962,621.837158 487.723297,595.424988 491.037659,568.537048 
	C492.347748,557.909241 494.499512,547.368225 496.667511,536.870178 
	C497.773407,531.515137 497.193695,529.183533 492.276215,526.574951 
	C485.330231,522.890320 478.452423,519.057373 471.365173,515.664551 
	C464.835938,512.538818 458.144989,509.704285 451.359192,507.189819 
	C449.345825,506.443787 446.621063,506.721954 444.477203,507.371765 
	C432.162018,511.104706 419.902740,515.026733 407.665344,519.010193 
	C397.342041,522.370544 388.184784,527.723511 379.654755,534.526550 
	C375.279053,538.016357 371.867889,544.112305 363.589569,540.296143 
	C356.204865,536.891846 347.505188,537.902832 339.209686,537.877502 
	C321.888611,537.824646 306.493927,543.418396 292.127258,552.348816 
	C280.398407,559.639465 271.279327,569.935974 261.648071,579.676392 
	C247.556747,593.927429 234.031219,608.914307 216.323654,619.029846 
	C204.414352,625.833069 192.042862,630.722412 177.913986,628.024353 
	C174.565491,627.384949 171.243988,626.604309 167.600830,625.272705 
	C164.687866,623.675476 161.774887,622.078186 158.861908,620.480957 
	C158.421188,620.942200 157.980453,621.403442 157.539734,621.864685 
	C160.152542,630.309143 164.813797,637.617615 171.017029,643.997253 
	C171.017029,643.997253 170.926163,643.966003 171.086121,644.515137 
	C171.404480,644.702332 171.722839,644.889526 172.017548,644.966492 
	C172.017548,644.966492 171.907364,644.989807 172.033600,645.677734 
	C173.682007,647.481689 175.330414,649.285706 177.006210,651.001221 
	C177.006210,651.001221 176.917786,650.973694 177.063339,651.529358 
	C177.384048,651.713013 177.704773,651.896606 177.996323,651.989258 
	C177.996323,651.989258 177.905182,652.018066 178.120132,652.648560 
	C179.741638,654.127441 181.363129,655.606262 182.983093,657.016296 
	C182.983093,657.016296 182.914490,657.022522 183.144669,657.693848 
	C186.409866,659.798584 189.675064,661.903320 193.279922,664.657227 
	C199.831207,666.786926 206.251068,670.055908 212.958755,670.829651 
	C231.932098,673.018127 249.325089,668.114197 264.361603,656.112366 
	C267.980469,653.223816 270.843445,649.388367 273.980835,645.979553 
	C273.980835,645.979553 273.971802,646.052734 274.516418,645.915344 
	C274.699982,645.603210 274.883545,645.291138 274.979553,644.977234 
	C274.979553,644.977234 274.977478,645.064758 275.528687,644.929138 
	C275.710052,644.612244 275.891418,644.295349 275.978516,643.978333 
	C275.978516,643.978333 275.978027,644.072632 276.526947,643.931396 
M482.944794,411.378784 
	C482.341797,410.628784 481.738770,409.878784 480.981873,408.402679 
	C478.567169,404.959839 476.636719,401.003906 473.641113,398.176544 
	C466.489441,391.426422 459.225555,384.703552 449.813751,380.963715 
	C441.865051,377.805267 434.082367,374.224091 426.104553,371.145233 
	C418.138336,368.070831 409.938873,365.597900 401.988678,362.485718 
	C389.187042,357.474365 376.303101,352.593170 363.839935,346.823212 
	C354.250031,342.383392 345.296417,336.582825 335.983643,331.527710 
	C320.385651,323.060852 306.832275,311.776093 295.228699,298.680176 
	C286.998138,289.391052 280.630188,278.286743 274.435577,267.419922 
	C270.681580,260.834503 268.843231,253.157013 266.144226,245.970154 
	C266.554535,245.735977 266.964844,245.501801 267.375122,245.267624 
	C268.463257,245.879608 269.637177,246.377441 270.626282,247.121109 
	C281.268707,255.122482 291.606720,263.562103 302.560120,271.109558 
	C325.877533,287.176483 350.037384,301.881866 376.198700,312.959961 
	C392.340424,319.795197 408.579651,326.408722 424.876434,332.866211 
	C436.323914,337.402161 448.184570,340.960632 459.422302,345.944214 
	C473.247894,352.075500 486.753571,359.053009 497.954407,369.555054 
	C506.672455,377.729126 516.130310,385.364014 523.541748,394.614716 
	C531.709045,404.808899 538.333069,416.333862 544.882446,427.709137 
	C556.464600,447.825775 564.393066,469.513855 571.150269,491.672852 
	C573.253235,498.569000 574.571472,505.728241 580.346802,511.275360 
	C588.117737,518.739136 594.912292,527.208679 602.391113,534.991760 
	C606.126709,538.879211 610.451294,542.200745 614.509460,545.778320 
	C615.000793,545.366760 615.492126,544.955139 615.983459,544.543579 
	C615.235535,524.941956 608.488403,506.525360 603.978821,487.277496 
	C605.614624,486.820923 607.160583,485.990662 608.681824,486.033508 
	C615.453857,486.224426 622.447510,485.680450 628.945984,487.189453 
	C654.256897,493.066742 675.630432,505.509308 690.035278,527.766235 
	C698.803772,541.314270 702.463806,555.951721 695.665161,571.732178 
	C694.846497,573.632385 694.429260,575.705444 693.731201,578.011658 
	C709.025208,578.481750 722.656982,575.130127 736.187439,571.082275 
	C739.750305,570.016357 742.144775,568.061157 743.045044,564.331848 
	C745.692017,553.366699 748.996887,542.523132 750.963135,531.440186 
	C753.640503,516.348633 752.097595,500.989899 749.665039,486.122498 
	C747.235046,471.270569 741.598755,456.972107 738.247314,442.231110 
	C736.270142,433.534729 735.499817,424.467041 735.197449,415.532104 
	C735.067078,411.680389 737.494934,407.742096 738.871216,403.502441 
	C742.897949,405.525818 745.809265,407.399658 748.988098,408.501434 
	C755.852600,410.880585 762.732422,413.929016 769.830566,414.741516 
	C778.900085,415.779724 786.586548,418.495636 792.692749,425.281097 
	C797.894104,431.060974 803.011292,436.916565 808.199829,442.708099 
	C811.840332,446.771759 816.443848,447.697144 821.609314,446.656494 
	C829.244812,445.118225 836.901733,443.678497 844.511414,442.021851 
	C851.986267,440.394501 859.537781,438.706604 862.465820,430.164520 
	C864.604980,423.923920 867.583496,417.787445 868.500061,411.363708 
	C869.389771,405.128723 869.862244,397.816101 867.433289,392.346619 
	C862.963745,382.282379 856.201721,373.241089 850.450562,363.739929 
	C843.356567,352.020386 836.315735,340.268707 829.258606,328.526855 
	C825.784119,322.745819 822.809875,316.583923 818.734436,311.264648 
	C813.733032,304.736908 807.611389,299.076752 802.421204,292.678802 
	C800.856628,290.750153 799.775757,287.439392 800.188171,285.058838 
	C802.689575,270.622864 805.634460,256.262085 808.557373,241.901901 
	C809.257812,238.460846 807.668030,237.484329 804.854614,238.180328 
	C796.887390,240.151321 788.517517,241.351395 781.153992,244.712463 
	C768.969910,250.273834 757.482544,257.351257 745.628174,263.651886 
	C742.413696,265.360382 739.041138,267.438263 735.560242,267.862335 
	C721.144653,269.618286 707.169128,272.528412 693.434570,277.616425 
	C671.554688,285.721893 653.247070,298.968201 637.475708,315.510040 
	C627.194458,326.293518 618.123535,338.437683 609.836365,350.857117 
	C601.659058,363.111847 595.173157,376.492920 587.894287,389.351044 
	C586.093811,392.531555 585.726990,395.748657 587.386047,399.002136 
	C591.173828,406.429993 595.034424,413.821381 598.938049,421.189117 
	C600.395874,423.940613 602.055908,426.584930 604.293640,430.428864 
	C608.495239,421.711792 611.768311,414.149109 615.689209,406.938629 
	C625.451355,388.985535 634.800171,370.861725 647.481995,354.552002 
	C657.415771,341.776550 668.158020,329.970306 681.172974,320.624054 
	C697.640564,308.798340 716.405579,302.469971 736.742310,300.862610 
	C741.201233,300.510193 745.811951,299.532379 749.889526,297.770447 
	C752.746643,296.535828 754.700439,293.335754 757.262268,291.266754 
	C762.722107,286.857269 768.315002,282.612579 773.853394,278.300323 
	C774.488831,278.755310 775.124207,279.210297 775.759644,279.665283 
	C774.615234,285.850342 773.377380,292.020020 772.355896,298.225311 
	C771.538513,303.191223 771.600403,307.634766 775.847961,311.782623 
	C781.772400,317.567932 787.610474,323.743988 792.080933,330.660645 
	C806.995483,353.736481 821.455200,377.114349 835.575867,400.683960 
	C837.179016,403.359985 836.577881,408.500092 835.080322,411.558167 
	C833.674316,414.429413 826.046143,413.344147 823.335815,410.675690 
	C819.536499,406.935181 815.885864,403.033936 811.952881,399.440826 
	C804.961975,393.053894 797.403137,387.727325 787.716003,385.975464 
	C778.700134,384.345001 769.202087,384.472046 761.260071,378.621704 
	C752.782654,372.376984 745.941895,365.240692 746.006653,353.875061 
	C746.030457,349.700317 746.551514,345.528412 746.834656,341.513184 
	C739.020691,340.008026 731.666748,338.670074 724.349304,337.155640 
	C719.033325,336.055481 717.222412,337.086090 716.037048,342.526154 
	C714.042664,351.679169 714.538513,360.824280 717.122559,369.729187 
	C718.462524,374.346924 718.366333,378.281494 715.376160,382.099060 
	C702.785950,398.173035 702.126282,417.188995 704.424255,435.857452 
	C707.106995,457.652069 716.933105,478.059906 719.067383,500.136230 
	C719.429810,503.885315 719.607422,507.652313 719.934753,512.330811 
	C718.207764,511.320068 717.692566,511.158112 717.390503,510.810791 
	C716.869324,510.211578 716.460083,509.509796 716.039429,508.829102 
	C708.590698,496.775238 698.756531,486.811127 687.628235,478.309174 
	C681.985718,473.998383 675.190369,471.119598 668.727539,467.981873 
	C662.679626,465.045624 656.557922,462.029755 650.147888,460.133240 
	C643.184937,458.073151 635.901306,456.610260 628.668518,456.063629 
	C617.963257,455.254456 607.158569,455.039459 596.442566,455.548767 
	C593.360718,455.695221 592.847839,454.779266 592.054138,452.842773 
	C589.374817,446.305756 586.867126,439.694977 584.049683,433.218628 
	C576.877319,416.731659 568.471008,400.854950 557.728394,386.442871 
	C550.305115,376.483978 542.047607,367.096802 533.616394,357.958374 
	C528.676025,352.603638 522.911194,347.910095 517.076538,343.502533 
	C507.671600,336.397888 498.221252,329.252777 488.179260,323.125977 
	C481.062927,318.784210 472.996826,315.955688 465.244598,312.715027 
	C460.104462,310.566345 454.788086,308.830292 449.517914,307.003784 
	C441.611633,304.263611 433.626953,301.742004 425.770477,298.868164 
	C420.059326,296.779114 414.514191,294.239685 408.872040,291.957764 
	C402.147614,289.238159 395.225098,286.939453 388.705505,283.799927 
	C381.069977,280.122986 373.792908,275.705566 366.329041,271.667236 
	C359.053284,267.730682 351.514740,264.228027 344.494232,259.884064 
	C334.812103,253.893265 325.400482,247.444931 316.072968,240.907288 
	C307.256653,234.727951 298.463928,228.471085 290.089966,221.716324 
	C280.772736,214.200714 271.873413,206.159454 262.917175,198.206207 
	C255.050217,191.220276 247.338074,184.059326 239.593918,176.936142 
	C236.266922,173.875900 233.939713,174.291245 233.278717,178.670914 
	C231.621674,189.650345 229.249557,200.694794 229.274139,211.708450 
	C229.300964,223.730453 230.764236,235.944992 233.251770,247.727158 
	C239.418030,276.933777 253.044403,302.406158 274.203918,323.676910 
	C275.626129,325.106598 276.930756,326.653168 278.290070,328.145386 
	C278.014191,328.518860 277.738312,328.892365 277.462433,329.265869 
	C263.937988,326.926544 252.520752,318.948914 240.115158,313.644043 
	C240.115158,316.784332 239.625748,319.188019 240.193054,321.309113 
	C244.498962,337.408264 248.180313,353.683319 255.913132,368.704315 
	C263.158081,382.777557 271.928101,395.814453 282.240936,407.678375 
	C289.053436,415.515564 296.555695,423.069550 304.898224,429.181854 
	C315.822021,437.185242 327.212677,445.247620 339.603729,450.390259 
	C358.540466,458.249542 378.447906,463.812347 398.050995,470.009338 
	C412.350311,474.529694 426.889648,478.288879 441.201508,482.772003 
	C458.203522,488.097778 474.433075,495.332520 489.919708,504.136475 
	C505.425446,512.951355 519.893799,523.184509 532.410767,536.031067 
	C548.648865,552.696716 564.702515,569.559082 581.422058,585.730408 
	C588.264465,592.348389 596.487427,597.600586 604.355286,603.082336 
	C616.063293,611.239746 628.794434,617.509399 642.322083,622.065796 
	C652.625122,625.536011 662.979370,628.900391 674.924927,628.888367 
	C685.601624,628.841003 696.278320,628.793701 707.833069,628.918945 
	C710.594543,628.608704 713.352600,628.264221 716.117981,627.993958 
	C730.203186,626.617310 743.560120,622.387207 756.811096,617.704407 
	C761.375183,616.091492 766.006714,614.669678 771.553650,612.850281 
	C770.244629,615.549561 769.562622,617.147766 768.722046,618.657776 
	C763.818359,627.466919 759.025452,636.342529 753.903137,645.023438 
	C749.684814,652.172302 744.490234,658.539246 737.373840,663.125610 
	C733.079956,665.892761 724.663818,665.525757 720.358337,663.105408 
	C717.307983,661.390686 713.234436,659.808228 710.583313,663.860718 
	C707.456177,668.640747 704.884644,673.784241 701.432373,679.041626 
	C701.343262,679.462219 701.254150,679.882812 701.047668,680.495605 
	C701.047668,680.495605 701.097778,680.715088 700.406555,681.029541 
	C700.324890,681.496216 700.243286,681.962952 700.044922,682.884766 
	C700.037964,683.198364 700.049500,683.511230 699.351685,684.134888 
	C695.305298,694.040894 694.028809,704.269165 695.600830,715.798096 
	C700.701904,714.784973 705.452820,713.841431 711.024597,712.969849 
	C712.326660,712.885071 713.697083,713.035034 714.920227,712.679138 
	C726.896301,709.194397 738.338684,704.543579 748.565735,697.216370 
	C757.872864,690.548218 766.865234,683.593079 773.111267,673.719482 
	C778.571472,665.088135 784.477112,656.719971 789.581909,647.886414 
	C799.005371,631.579407 808.081238,615.068481 817.110901,598.538147 
	C821.478577,590.542358 820.462708,582.623962 815.006409,575.539734 
	C810.344849,569.487488 797.039795,565.723389 790.220703,568.489929 
	C782.635742,571.567261 775.351074,575.382446 767.776428,578.488098 
	C757.178162,582.833435 746.606567,587.375305 735.697021,590.789917 
	C726.372009,593.708557 716.586792,595.157166 706.065735,597.153992 
	C697.033936,597.176025 688.002197,597.198059 678.134277,597.020996 
	C673.659546,596.363953 669.111267,596.012512 664.731995,594.958618 
	C660.833923,594.020386 657.082764,592.405212 653.338623,590.909058 
	C647.126160,588.426514 640.521973,586.529907 634.894775,583.067139 
	C625.863708,577.509766 615.700867,573.734741 608.435425,565.194031 
	C603.522827,559.419128 596.748230,555.271362 591.398926,549.814941 
	C583.105042,541.355164 575.503113,532.218933 567.253113,523.713562 
	C560.902222,517.166077 554.214905,510.904297 547.297852,504.956726 
	C538.970520,497.796570 530.689148,490.425476 521.559998,484.400085 
	C512.545654,478.450531 502.590363,473.881042 492.876404,469.051025 
	C484.344238,464.808624 475.804291,460.397186 466.856171,457.219452 
	C453.437561,452.454041 439.655121,448.714905 426.034576,444.516052 
	C413.578461,440.676208 401.097137,436.913269 388.690735,432.918427 
	C375.971344,428.822754 362.728119,425.717041 350.827148,419.900665 
	C339.536987,414.382812 329.408142,406.283813 319.315002,398.601929 
	C313.665741,394.302307 308.839294,388.790436 304.184998,383.359497 
	C300.918243,379.547668 298.567780,374.950623 295.312469,369.941467 
	C308.250519,373.855621 320.060486,377.720703 332.035156,380.980835 
	C348.798065,385.544556 365.601379,390.018921 382.536194,393.878784 
	C408.075134,399.699768 432.763367,407.969025 456.753540,418.370056 
	C464.335541,421.657257 471.667297,425.521729 479.381714,429.728180 
	C483.637939,432.670471 487.894165,435.612762 492.150360,438.555023 
	C492.646423,438.188721 493.142456,437.822418 493.638489,437.456116 
	C491.788177,432.337097 489.937866,427.218079 487.977631,421.452606 
	C487.656586,420.955048 487.335541,420.457489 486.944000,419.263916 
	C486.290436,418.154358 485.636871,417.044830 484.974548,416.034119 
	C484.974548,416.034119 485.073364,416.043396 484.941406,415.340668 
	C484.294678,414.205536 483.647949,413.070404 482.994629,412.001251 
	C482.994629,412.001251 483.060883,411.999268 482.944794,411.378784 
z"/>
<path fill="#25BABC" opacity="1.000000" stroke="none" 
	d="
M707.005127,597.256042 
	C716.586792,595.157166 726.372009,593.708557 735.697021,590.789917 
	C746.606567,587.375305 757.178162,582.833435 767.776428,578.488098 
	C775.351074,575.382446 782.635742,571.567261 790.220703,568.489929 
	C797.039795,565.723389 810.344849,569.487488 815.006409,575.539734 
	C820.462708,582.623962 821.478577,590.542358 817.110901,598.538147 
	C808.081238,615.068481 799.005371,631.579407 789.581909,647.886414 
	C784.477112,656.719971 778.571472,665.088135 773.111267,673.719482 
	C766.865234,683.593079 757.872864,690.548218 748.565735,697.216370 
	C738.338684,704.543579 726.896301,709.194397 714.920227,712.679138 
	C713.697083,713.035034 712.326660,712.885071 710.165283,712.927368 
	C707.495728,713.009521 705.683777,713.112671 703.875671,713.262390 
	C696.904053,713.839600 695.382141,712.763000 696.144653,705.673950 
	C696.934082,698.334290 698.725952,691.102417 700.079407,683.823425 
	C700.049500,683.511230 700.037964,683.198364 700.336121,682.418457 
	C700.784119,681.539795 700.940918,681.127441 701.097778,680.715088 
	C701.097778,680.715088 701.047668,680.495605 701.307007,680.174805 
	C701.734924,679.492737 701.903564,679.131409 702.072144,678.770142 
	C704.884644,673.784241 707.456177,668.640747 710.583313,663.860718 
	C713.234436,659.808228 717.307983,661.390686 720.358337,663.105408 
	C724.663818,665.525757 733.079956,665.892761 737.373840,663.125610 
	C744.490234,658.539246 749.684814,652.172302 753.903137,645.023438 
	C759.025452,636.342529 763.818359,627.466919 768.722046,618.657776 
	C769.562622,617.147766 770.244629,615.549561 771.553650,612.850281 
	C766.006714,614.669678 761.375183,616.091492 756.811096,617.704407 
	C743.560120,622.387207 730.203186,626.617310 716.117981,627.993958 
	C713.352600,628.264221 710.594543,628.608704 707.007812,628.724304 
	C695.473877,628.608093 684.765198,628.686462 674.056580,628.764893 
	C662.979370,628.900391 652.625122,625.536011 642.322083,622.065796 
	C628.794434,617.509399 616.063293,611.239746 604.355286,603.082336 
	C596.487427,597.600586 588.264465,592.348389 581.422058,585.730408 
	C564.702515,569.559082 548.648865,552.696716 532.410767,536.031067 
	C519.893799,523.184509 505.425446,512.951355 489.919708,504.136475 
	C474.433075,495.332520 458.203522,488.097778 441.201508,482.772003 
	C426.889648,478.288879 412.350311,474.529694 398.050995,470.009338 
	C378.447906,463.812347 358.540466,458.249542 339.603729,450.390259 
	C327.212677,445.247620 315.822021,437.185242 304.898224,429.181854 
	C296.555695,423.069550 289.053436,415.515564 282.240936,407.678375 
	C271.928101,395.814453 263.158081,382.777557 255.913132,368.704315 
	C248.180313,353.683319 244.498962,337.408264 240.193054,321.309113 
	C239.625748,319.188019 240.115158,316.784332 240.115158,313.644043 
	C252.520752,318.948914 263.937988,326.926544 277.462433,329.265869 
	C277.738312,328.892365 278.014191,328.518860 278.290070,328.145386 
	C276.930756,326.653168 275.626129,325.106598 274.203918,323.676910 
	C253.044403,302.406158 239.418030,276.933777 233.251770,247.727158 
	C230.764236,235.944992 229.300964,223.730453 229.274139,211.708450 
	C229.249557,200.694794 231.621674,189.650345 233.278717,178.670914 
	C233.939713,174.291245 236.266922,173.875900 239.593918,176.936142 
	C247.338074,184.059326 255.050217,191.220276 262.917175,198.206207 
	C271.873413,206.159454 280.772736,214.200714 290.089966,221.716324 
	C298.463928,228.471085 307.256653,234.727951 316.072968,240.907288 
	C325.400482,247.444931 334.812103,253.893265 344.494232,259.884064 
	C351.514740,264.228027 359.053284,267.730682 366.329041,271.667236 
	C373.792908,275.705566 381.069977,280.122986 388.705505,283.799927 
	C395.225098,286.939453 402.147614,289.238159 408.872040,291.957764 
	C414.514191,294.239685 420.059326,296.779114 425.770477,298.868164 
	C433.626953,301.742004 441.611633,304.263611 449.517914,307.003784 
	C454.788086,308.830292 460.104462,310.566345 465.244598,312.715027 
	C472.996826,315.955688 481.062927,318.784210 488.179260,323.125977 
	C498.221252,329.252777 507.671600,336.397888 517.076538,343.502533 
	C522.911194,347.910095 528.676025,352.603638 533.616394,357.958374 
	C542.047607,367.096802 550.305115,376.483978 557.728394,386.442871 
	C568.471008,400.854950 576.877319,416.731659 584.049683,433.218628 
	C586.867126,439.694977 589.374817,446.305756 592.054138,452.842773 
	C592.847839,454.779266 593.360718,455.695221 596.442566,455.548767 
	C607.158569,455.039459 617.963257,455.254456 628.668518,456.063629 
	C635.901306,456.610260 643.184937,458.073151 650.147888,460.133240 
	C656.557922,462.029755 662.679626,465.045624 668.727539,467.981873 
	C675.190369,471.119598 681.985718,473.998383 687.628235,478.309174 
	C698.756531,486.811127 708.590698,496.775238 716.039429,508.829102 
	C716.460083,509.509796 716.869324,510.211578 717.390503,510.810791 
	C717.692566,511.158112 718.207764,511.320068 719.934753,512.330811 
	C719.607422,507.652313 719.429810,503.885315 719.067383,500.136230 
	C716.933105,478.059906 707.106995,457.652069 704.424255,435.857452 
	C702.126282,417.188995 702.785950,398.173035 715.376160,382.099060 
	C718.366333,378.281494 718.462524,374.346924 717.122559,369.729187 
	C714.538513,360.824280 714.042664,351.679169 716.037048,342.526154 
	C717.222412,337.086090 719.033325,336.055481 724.349304,337.155640 
	C731.666748,338.670074 739.020691,340.008026 746.834656,341.513184 
	C746.551514,345.528412 746.030457,349.700317 746.006653,353.875061 
	C745.941895,365.240692 752.782654,372.376984 761.260071,378.621704 
	C769.202087,384.472046 778.700134,384.345001 787.716003,385.975464 
	C797.403137,387.727325 804.961975,393.053894 811.952881,399.440826 
	C815.885864,403.033936 819.536499,406.935181 823.335815,410.675690 
	C826.046143,413.344147 833.674316,414.429413 835.080322,411.558167 
	C836.577881,408.500092 837.179016,403.359985 835.575867,400.683960 
	C821.455200,377.114349 806.995483,353.736481 792.080933,330.660645 
	C787.610474,323.743988 781.772400,317.567932 775.847961,311.782623 
	C771.600403,307.634766 771.538513,303.191223 772.355896,298.225311 
	C773.377380,292.020020 774.615234,285.850342 775.759644,279.665283 
	C775.124207,279.210297 774.488831,278.755310 773.853394,278.300323 
	C768.315002,282.612579 762.722107,286.857269 757.262268,291.266754 
	C754.700439,293.335754 752.746643,296.535828 749.889526,297.770447 
	C745.811951,299.532379 741.201233,300.510193 736.742310,300.862610 
	C716.405579,302.469971 697.640564,308.798340 681.172974,320.624054 
	C668.158020,329.970306 657.415771,341.776550 647.481995,354.552002 
	C634.800171,370.861725 625.451355,388.985535 615.689209,406.938629 
	C611.768311,414.149109 608.495239,421.711792 604.293640,430.428864 
	C602.055908,426.584930 600.395874,423.940613 598.938049,421.189117 
	C595.034424,413.821381 591.173828,406.429993 587.386047,399.002136 
	C585.726990,395.748657 586.093811,392.531555 587.894287,389.351044 
	C595.173157,376.492920 601.659058,363.111847 609.836365,350.857117 
	C618.123535,338.437683 627.194458,326.293518 637.475708,315.510040 
	C653.247070,298.968201 671.554688,285.721893 693.434570,277.616425 
	C707.169128,272.528412 721.144653,269.618286 735.560242,267.862335 
	C739.041138,267.438263 742.413696,265.360382 745.628174,263.651886 
	C757.482544,257.351257 768.969910,250.273834 781.153992,244.712463 
	C788.517517,241.351395 796.887390,240.151321 804.854614,238.180328 
	C807.668030,237.484329 809.257812,238.460846 808.557373,241.901901 
	C805.634460,256.262085 802.689575,270.622864 800.188171,285.058838 
	C799.775757,287.439392 800.856628,290.750153 802.421204,292.678802 
	C807.611389,299.076752 813.733032,304.736908 818.734436,311.264648 
	C822.809875,316.583923 825.784119,322.745819 829.258606,328.526855 
	C836.315735,340.268707 843.356567,352.020386 850.450562,363.739929 
	C856.201721,373.241089 862.963745,382.282379 867.433289,392.346619 
	C869.862244,397.816101 869.389771,405.128723 868.500061,411.363708 
	C867.583496,417.787445 864.604980,423.923920 862.465820,430.164520 
	C859.537781,438.706604 851.986267,440.394501 844.511414,442.021851 
	C836.901733,443.678497 829.244812,445.118225 821.609314,446.656494 
	C816.443848,447.697144 811.840332,446.771759 808.199829,442.708099 
	C803.011292,436.916565 797.894104,431.060974 792.692749,425.281097 
	C786.586548,418.495636 778.900085,415.779724 769.830566,414.741516 
	C762.732422,413.929016 755.852600,410.880585 748.988098,408.501434 
	C745.809265,407.399658 742.897949,405.525818 738.871216,403.502441 
	C737.494934,407.742096 735.067078,411.680389 735.197449,415.532104 
	C735.499817,424.467041 736.270142,433.534729 738.247314,442.231110 
	C741.598755,456.972107 747.235046,471.270569 749.665039,486.122498 
	C752.097595,500.989899 753.640503,516.348633 750.963135,531.440186 
	C748.996887,542.523132 745.692017,553.366699 743.045044,564.331848 
	C742.144775,568.061157 739.750305,570.016357 736.187439,571.082275 
	C722.656982,575.130127 709.025208,578.481750 693.731201,578.011658 
	C694.429260,575.705444 694.846497,573.632385 695.665161,571.732178 
	C702.463806,555.951721 698.803772,541.314270 690.035278,527.766235 
	C675.630432,505.509308 654.256897,493.066742 628.945984,487.189453 
	C622.447510,485.680450 615.453857,486.224426 608.681824,486.033508 
	C607.160583,485.990662 605.614624,486.820923 603.978821,487.277496 
	C608.488403,506.525360 615.235535,524.941956 615.983459,544.543579 
	C615.492126,544.955139 615.000793,545.366760 614.509460,545.778320 
	C610.451294,542.200745 606.126709,538.879211 602.391113,534.991760 
	C594.912292,527.208679 588.117737,518.739136 580.346802,511.275360 
	C574.571472,505.728241 573.253235,498.569000 571.150269,491.672852 
	C564.393066,469.513855 556.464600,447.825775 544.882446,427.709137 
	C538.333069,416.333862 531.709045,404.808899 523.541748,394.614716 
	C516.130310,385.364014 506.672455,377.729126 497.954407,369.555054 
	C486.753571,359.053009 473.247894,352.075500 459.422302,345.944214 
	C448.184570,340.960632 436.323914,337.402161 424.876434,332.866211 
	C408.579651,326.408722 392.340424,319.795197 376.198700,312.959961 
	C350.037384,301.881866 325.877533,287.176483 302.560120,271.109558 
	C291.606720,263.562103 281.268707,255.122482 270.626282,247.121109 
	C269.637177,246.377441 268.463257,245.879608 267.375122,245.267624 
	C266.964844,245.501801 266.554535,245.735977 266.144226,245.970154 
	C268.843231,253.157013 270.681580,260.834503 274.435577,267.419922 
	C280.630188,278.286743 286.998138,289.391052 295.228699,298.680176 
	C306.832275,311.776093 320.385651,323.060852 335.983643,331.527710 
	C345.296417,336.582825 354.250031,342.383392 363.839935,346.823212 
	C376.303101,352.593170 389.187042,357.474365 401.988678,362.485718 
	C409.938873,365.597900 418.138336,368.070831 426.104553,371.145233 
	C434.082367,374.224091 441.865051,377.805267 449.813751,380.963715 
	C459.225555,384.703552 466.489441,391.426422 473.641113,398.176544 
	C476.636719,401.003906 478.567169,404.959839 481.154297,409.047241 
	C481.904785,410.460968 482.482819,411.230133 483.060883,411.999268 
	C483.060883,411.999268 482.994629,412.001251 483.091797,412.291901 
	C483.817078,413.736145 484.445221,414.889771 485.073364,416.043396 
	C485.073364,416.043396 484.974548,416.034119 485.060730,416.309021 
	C485.769409,417.709229 486.391968,418.834595 487.014526,419.959930 
	C487.335541,420.457489 487.656586,420.955048 487.959900,422.076233 
	C488.188965,423.959473 488.619751,425.216614 488.637177,426.479431 
	C488.660309,428.153809 488.360474,429.832642 488.199463,431.509583 
	C486.682190,431.290924 485.129150,431.207123 483.657471,430.816650 
	C482.102417,430.404022 480.624939,429.699219 479.113556,429.122040 
	C471.667297,425.521729 464.335541,421.657257 456.753540,418.370056 
	C432.763367,407.969025 408.075134,399.699768 382.536194,393.878784 
	C365.601379,390.018921 348.798065,385.544556 332.035156,380.980835 
	C320.060486,377.720703 308.250519,373.855621 295.312469,369.941467 
	C298.567780,374.950623 300.918243,379.547668 304.184998,383.359497 
	C308.839294,388.790436 313.665741,394.302307 319.315002,398.601929 
	C329.408142,406.283813 339.536987,414.382812 350.827148,419.900665 
	C362.728119,425.717041 375.971344,428.822754 388.690735,432.918427 
	C401.097137,436.913269 413.578461,440.676208 426.034576,444.516052 
	C439.655121,448.714905 453.437561,452.454041 466.856171,457.219452 
	C475.804291,460.397186 484.344238,464.808624 492.876404,469.051025 
	C502.590363,473.881042 512.545654,478.450531 521.559998,484.400085 
	C530.689148,490.425476 538.970520,497.796570 547.297852,504.956726 
	C554.214905,510.904297 560.902222,517.166077 567.253113,523.713562 
	C575.503113,532.218933 583.105042,541.355164 591.398926,549.814941 
	C596.748230,555.271362 603.522827,559.419128 608.435425,565.194031 
	C615.700867,573.734741 625.863708,577.509766 634.894775,583.067139 
	C640.521973,586.529907 647.126160,588.426514 653.338623,590.909058 
	C657.082764,592.405212 660.833923,594.020386 664.731995,594.958618 
	C669.111267,596.012512 673.659546,596.363953 678.948975,597.248901 
	C688.844116,597.403137 697.924622,597.329590 707.005127,597.256042 
z"/>
<path fill="#24BBBD" opacity="1.000000" stroke="none" 
	d="
M167.910080,625.888550 
	C171.243988,626.604309 174.565491,627.384949 177.913986,628.024353 
	C192.042862,630.722412 204.414352,625.833069 216.323654,619.029846 
	C234.031219,608.914307 247.556747,593.927429 261.648071,579.676392 
	C271.279327,569.935974 280.398407,559.639465 292.127258,552.348816 
	C306.493927,543.418396 321.888611,537.824646 339.209686,537.877502 
	C347.505188,537.902832 356.204865,536.891846 363.589569,540.296143 
	C371.867889,544.112305 375.279053,538.016357 379.654755,534.526550 
	C388.184784,527.723511 397.342041,522.370544 407.665344,519.010193 
	C419.902740,515.026733 432.162018,511.104706 444.477203,507.371765 
	C446.621063,506.721954 449.345825,506.443787 451.359192,507.189819 
	C458.144989,509.704285 464.835938,512.538818 471.365173,515.664551 
	C478.452423,519.057373 485.330231,522.890320 492.276215,526.574951 
	C497.193695,529.183533 497.773407,531.515137 496.667511,536.870178 
	C494.499512,547.368225 492.347748,557.909241 491.037659,568.537048 
	C487.723297,595.424988 482.623962,621.837158 469.961395,646.067871 
	C463.804169,657.850159 456.575439,668.962585 447.679779,679.159302 
	C431.093262,698.171631 410.960968,712.070679 388.617096,722.999451 
	C372.960083,730.657471 356.754364,737.189087 341.046967,744.749878 
	C325.872589,752.054138 313.735138,763.052185 303.973358,776.854065 
	C288.970428,798.066162 277.820801,821.132690 270.199982,845.887756 
	C268.773163,850.522583 266.212341,852.708496 261.896942,852.823364 
	C253.159668,853.055908 244.411835,852.892761 234.955780,852.892761 
	C235.238556,849.680359 235.067719,847.690369 235.621353,845.927917 
	C242.694977,823.409241 249.832062,800.910278 257.039581,778.434082 
	C260.935181,766.285889 265.058075,754.210571 268.955200,742.062866 
	C270.775665,736.388306 271.554443,730.236267 274.222443,725.026245 
	C276.065399,721.427429 279.866547,718.032166 283.604614,716.343933 
	C298.312469,709.701660 307.801331,697.996033 315.538727,684.645020 
	C322.987061,671.792908 327.137177,657.803589 329.120941,642.986938 
	C331.144318,627.874329 333.746918,612.789856 337.136230,597.930420 
	C338.827423,590.515808 342.854828,583.636780 345.790405,576.500977 
	C346.279327,575.312561 346.588074,574.050110 346.697174,572.291504 
	C345.275757,571.764893 344.137238,571.768555 342.998749,571.772217 
	C342.998749,571.772278 342.587708,571.928345 342.096588,572.020752 
	C341.281433,572.328613 340.957397,572.543945 340.633362,572.759277 
	C340.301025,572.820679 339.968689,572.882019 339.083679,572.967224 
	C337.990051,573.250000 337.449127,573.508972 336.908203,573.768005 
	C336.908203,573.768005 336.554565,573.919373 335.990112,573.932190 
	C334.277710,574.657654 333.129822,575.370239 331.981903,576.082886 
	C331.981903,576.082886 331.964355,575.975464 331.859253,576.125488 
	C331.527802,576.476929 331.352173,576.715576 331.227295,576.991577 
	C330.933044,577.330505 330.638763,577.669495 329.912842,577.924500 
	C329.298676,577.898743 329.118896,577.967041 328.941895,578.045471 
	C328.941895,578.045471 328.962402,577.955994 328.665161,578.019409 
	C327.234009,579.071350 326.100098,580.059937 324.966217,581.048523 
	C324.966217,581.048523 324.964844,580.969543 324.653656,581.035583 
	C317.782227,584.822571 312.847046,590.001282 310.017944,597.069397 
	C310.017944,597.069397 310.009857,597.004150 309.703857,597.078979 
	C307.604675,599.794373 305.811462,602.434937 304.018250,605.075500 
	C304.018250,605.075500 304.013397,605.006714 303.717102,605.093140 
	C299.288330,611.809326 295.155853,618.439087 291.023438,625.068909 
	C291.023438,625.068909 291.001648,625.004272 290.808990,625.128540 
	C290.405029,625.527222 290.193756,625.801697 289.982483,626.076172 
	C289.982483,626.076172 289.991669,625.985291 289.730103,626.119995 
	C288.990143,627.196289 288.511810,628.137817 288.033447,629.079346 
	C288.033447,629.079346 288.022217,629.016418 287.704407,629.052917 
	C283.929962,633.750977 280.473358,638.412476 277.016724,643.073975 
	C277.016724,643.073975 276.996490,643.002441 276.819092,643.140625 
	C276.420502,643.543457 276.199249,643.808044 275.978027,644.072632 
	C275.978027,644.072632 275.978516,643.978333 275.810577,644.124695 
	C275.420929,644.535645 275.199188,644.800171 274.977478,645.064758 
	C274.977478,645.064758 274.979553,644.977234 274.806000,645.119263 
	C274.412231,645.525085 274.192017,645.788879 273.971802,646.052734 
	C273.971802,646.052734 273.980835,645.979553 273.679138,646.071289 
	C270.524872,648.397156 267.577393,650.521118 264.835571,652.883789 
	C250.885468,664.904358 234.897552,671.412170 216.391068,669.208191 
	C208.454544,668.263000 200.768539,665.214417 192.761215,662.866089 
	C189.340652,660.747986 186.127579,658.885254 182.914490,657.022522 
	C182.914490,657.022522 182.983093,657.016296 182.929932,656.697388 
	C181.219559,654.925049 179.562378,653.471558 177.905182,652.018066 
	C177.905182,652.018066 177.996323,651.989258 177.852844,651.824829 
	C177.445511,651.431519 177.181641,651.202637 176.917786,650.973694 
	C176.917786,650.973694 177.006210,651.001221 176.973450,650.689209 
	C175.262924,648.581360 173.585144,646.785583 171.907364,644.989807 
	C171.907364,644.989807 172.017548,644.966492 171.853607,644.826538 
	C171.435165,644.446411 171.180664,644.206177 170.926163,643.966003 
	C170.926163,643.966003 171.017029,643.997253 170.978180,643.680298 
	C168.540985,639.430908 166.011169,635.570068 163.809067,631.530701 
	C162.928894,629.916138 162.771408,627.907654 162.284943,626.078491 
	C164.159988,626.015137 166.035034,625.951843 167.910080,625.888550 
M340.259918,703.123230 
	C337.211212,705.281616 336.814941,708.000305 338.440063,711.581482 
	C344.096588,710.786499 349.243927,709.446716 353.999664,705.152710 
	C356.405792,704.532532 358.991791,704.287720 361.190308,703.234314 
	C383.867889,692.368958 406.160034,681.078918 423.134247,661.521606 
	C437.448395,645.029114 448.465179,626.689148 453.811035,605.679382 
	C457.848785,589.810669 459.393799,573.303040 461.946289,557.063721 
	C462.771912,551.811035 463.423340,546.520386 463.882660,541.223511 
	C464.338593,535.965454 462.138184,533.680603 457.908661,534.900696 
	C445.930145,538.356018 433.917450,541.720032 422.055084,545.544495 
	C403.180756,551.629700 387.968506,562.932251 377.673126,579.892639 
	C372.637238,588.188599 367.713318,597.160828 365.573273,606.478027 
	C361.306366,625.054871 359.250275,644.128662 355.741730,662.896362 
	C354.505432,669.509460 351.928955,675.916992 349.536957,682.257080 
	C346.907349,689.226807 343.785187,696.010742 340.259918,703.123230 
z"/>
<path fill="#6BC3C2" opacity="1.000000" stroke="none" 
	d="
M192.968704,663.121460 
	C200.768539,665.214417 208.454544,668.263000 216.391068,669.208191 
	C234.897552,671.412170 250.885468,664.904358 264.835571,652.883789 
	C267.577393,650.521118 270.524872,648.397156 273.715759,646.075684 
	C270.843445,649.388367 267.980469,653.223816 264.361603,656.112366 
	C249.325089,668.114197 231.932098,673.018127 212.958755,670.829651 
	C206.251068,670.055908 199.831207,666.786926 193.113525,664.111084 
	C192.947144,663.564880 192.968704,663.121460 192.968704,663.121460 
z"/>
<path fill="#85C7C7" opacity="1.000000" stroke="none" 
	d="
M167.755463,625.580627 
	C166.035034,625.951843 164.159988,626.015137 162.284943,626.078491 
	C162.771408,627.907654 162.928894,629.916138 163.809067,631.530701 
	C166.011169,635.570068 168.540985,639.430908 170.962677,643.725708 
	C164.813797,637.617615 160.152542,630.309143 157.539734,621.864685 
	C157.980453,621.403442 158.421188,620.942200 158.861908,620.480957 
	C161.774887,622.078186 164.687866,623.675476 167.755463,625.580627 
z"/>
<path fill="#8ECACA" opacity="1.000000" stroke="none" 
	d="
M479.247620,429.425110 
	C480.624939,429.699219 482.102417,430.404022 483.657471,430.816650 
	C485.129150,431.207123 486.682190,431.290924 488.199463,431.509583 
	C488.360474,429.832642 488.660309,428.153809 488.637177,426.479431 
	C488.619751,425.216614 488.188965,423.959473 488.014832,422.399445 
	C489.937866,427.218079 491.788177,432.337097 493.638489,437.456116 
	C493.142456,437.822418 492.646423,438.188721 492.150360,438.555023 
	C487.894165,435.612762 483.637939,432.670471 479.247620,429.425110 
z"/>
<path fill="#73C6C6" opacity="1.000000" stroke="none" 
	d="
M699.715576,683.979126 
	C698.725952,691.102417 696.934082,698.334290 696.144653,705.673950 
	C695.382141,712.763000 696.904053,713.839600 703.875671,713.262390 
	C705.683777,713.112671 707.495728,713.009521 709.754822,712.891357 
	C705.452820,713.841431 700.701904,714.784973 695.600830,715.798096 
	C694.028809,704.269165 695.305298,694.040894 699.715576,683.979126 
z"/>
<path fill="#7FCDCB" opacity="1.000000" stroke="none" 
	d="
M674.490723,628.826660 
	C684.765198,628.686462 695.473877,628.608093 706.568726,628.638000 
	C696.278320,628.793701 685.601624,628.841003 674.490723,628.826660 
z"/>
<path fill="#6BC3C2" opacity="1.000000" stroke="none" 
	d="
M291.348755,624.926270 
	C295.155853,618.439087 299.288330,611.809326 303.751587,605.092773 
	C300.337158,610.908630 296.588776,616.809265 292.851196,622.716675 
	C292.427704,623.385986 292.065002,624.093689 291.348755,624.926270 
z"/>
<path fill="#6BC3C2" opacity="1.000000" stroke="none" 
	d="
M310.342041,596.959290 
	C312.847046,590.001282 317.782227,584.822571 324.693115,581.034668 
	C320.251221,586.261475 315.458649,591.555359 310.342041,596.959290 
z"/>
<path fill="#6BC3C2" opacity="1.000000" stroke="none" 
	d="
M277.345001,642.967651 
	C280.473358,638.412476 283.929962,633.750977 287.735779,629.058899 
	C284.614410,633.639404 281.143829,638.250366 277.345001,642.967651 
z"/>
<path fill="#96E5E7" opacity="1.000000" stroke="none" 
	d="
M706.535400,597.205017 
	C697.924622,597.329590 688.844116,597.403137 679.367004,597.348389 
	C688.002197,597.198059 697.033936,597.176025 706.535400,597.205017 
z"/>
<path fill="#85C7C7" opacity="1.000000" stroke="none" 
	d="
M192.761215,662.866089 
	C192.968704,663.121460 192.947144,663.564880 192.943695,663.786499 
	C189.675064,661.903320 186.409866,659.798584 183.029587,657.358154 
	C186.127579,658.885254 189.340652,660.747986 192.761215,662.866089 
z"/>
<path fill="#6BC3C2" opacity="1.000000" stroke="none" 
	d="
M304.351196,604.965393 
	C305.811462,602.434937 307.604675,599.794373 309.736694,597.080627 
	C308.278412,599.623413 306.481262,602.239319 304.351196,604.965393 
z"/>
<path fill="#85C7C7" opacity="1.000000" stroke="none" 
	d="
M171.970490,645.333740 
	C173.585144,646.785583 175.262924,648.581360 176.959747,650.733398 
	C175.330414,649.285706 173.682007,647.481689 171.970490,645.333740 
z"/>
<path fill="#85C7C7" opacity="1.000000" stroke="none" 
	d="
M178.012665,652.333313 
	C179.562378,653.471558 181.219559,654.925049 182.930695,656.731812 
	C181.363129,655.606262 179.741638,654.127441 178.012665,652.333313 
z"/>
<path fill="#6BC3C2" opacity="1.000000" stroke="none" 
	d="
M325.299316,580.983643 
	C326.100098,580.059937 327.234009,579.071350 328.709961,578.029297 
	C327.912170,578.956848 326.772308,579.937805 325.299316,580.983643 
z"/>
<path fill="#6BC3C2" opacity="1.000000" stroke="none" 
	d="
M332.330750,576.009583 
	C333.129822,575.370239 334.277710,574.657654 335.797791,573.928955 
	C335.006500,574.587402 333.843079,575.261841 332.330750,576.009583 
z"/>
<path fill="#8ECACA" opacity="1.000000" stroke="none" 
	d="
M485.007385,415.692017 
	C484.445221,414.889771 483.817078,413.736145 483.095093,412.258911 
	C483.647949,413.070404 484.294678,414.205536 485.007385,415.692017 
z"/>
<path fill="#8ECACA" opacity="1.000000" stroke="none" 
	d="
M486.979248,419.611938 
	C486.391968,418.834595 485.769409,417.709229 485.065125,416.259583 
	C485.636871,417.044830 486.290436,418.154358 486.979248,419.611938 
z"/>
<path fill="#8ECACA" opacity="1.000000" stroke="none" 
	d="
M483.002838,411.689026 
	C482.482819,411.230133 481.904785,410.460968 481.231262,409.410309 
	C481.738770,409.878784 482.341797,410.628784 483.002838,411.689026 
z"/>
<path fill="#6BC3C2" opacity="1.000000" stroke="none" 
	d="
M288.364319,628.986938 
	C288.511810,628.137817 288.990143,627.196289 289.775543,626.124512 
	C289.620117,626.960999 289.157654,627.927734 288.364319,628.986938 
z"/>
<path fill="#6BC3C2" opacity="1.000000" stroke="none" 
	d="
M343.389984,571.833496 
	C344.137238,571.768555 345.275757,571.764893 346.668396,571.910034 
	C345.875458,572.004089 344.828339,571.949402 343.389984,571.833496 
z"/>
<path fill="#6BC3C2" opacity="1.000000" stroke="none" 
	d="
M337.233459,573.826660 
	C337.449127,573.508972 337.990051,573.250000 338.829529,572.933716 
	C338.604980,573.212708 338.081818,573.549011 337.233459,573.826660 
z"/>
<path fill="#73C6C6" opacity="1.000000" stroke="none" 
	d="
M700.752136,680.872314 
	C700.940918,681.127441 700.784119,681.539795 700.394531,682.190918 
	C700.243286,681.962952 700.324890,681.496216 700.752136,680.872314 
z"/>
<path fill="#73C6C6" opacity="1.000000" stroke="none" 
	d="
M701.752258,678.905884 
	C701.903564,679.131409 701.734924,679.492737 701.365601,680.078735 
	C701.254150,679.882812 701.343262,679.462219 701.752258,678.905884 
z"/>
<path fill="#85C7C7" opacity="1.000000" stroke="none" 
	d="
M171.006134,644.240601 
	C171.180664,644.206177 171.435165,644.446411 171.865417,644.881592 
	C171.722839,644.889526 171.404480,644.702332 171.006134,644.240601 
z"/>
<path fill="#85C7C7" opacity="1.000000" stroke="none" 
	d="
M176.990555,651.251526 
	C177.181641,651.202637 177.445511,651.431519 177.867432,651.870361 
	C177.704773,651.896606 177.384048,651.713013 176.990555,651.251526 
z"/>
<path fill="#6BC3C2" opacity="1.000000" stroke="none" 
	d="
M274.244110,645.984009 
	C274.192017,645.788879 274.412231,645.525085 274.849792,645.120117 
	C274.883545,645.291138 274.699982,645.603210 274.244110,645.984009 
z"/>
<path fill="#6BC3C2" opacity="1.000000" stroke="none" 
	d="
M275.253082,644.996948 
	C275.199188,644.800171 275.420929,644.535645 275.857727,644.124756 
	C275.891418,644.295349 275.710052,644.612244 275.253082,644.996948 
z"/>
<path fill="#6BC3C2" opacity="1.000000" stroke="none" 
	d="
M331.451355,576.902954 
	C331.352173,576.715576 331.527802,576.476929 331.912903,576.116455 
	C332.067017,576.302002 331.934937,576.587708 331.451355,576.902954 
z"/>
<path fill="#6BC3C2" opacity="1.000000" stroke="none" 
	d="
M276.252502,644.002014 
	C276.199249,643.808044 276.420502,643.543457 276.854858,643.130371 
	C276.887634,643.298401 276.707306,643.614929 276.252502,644.002014 
z"/>
<path fill="#6BC3C2" opacity="1.000000" stroke="none" 
	d="
M340.949036,572.757324 
	C340.957397,572.543945 341.281433,572.328613 341.877594,572.001709 
	C341.854736,572.178589 341.559753,572.466980 340.949036,572.757324 
z"/>
<path fill="#6BC3C2" opacity="1.000000" stroke="none" 
	d="
M290.259705,626.010681 
	C290.193756,625.801697 290.405029,625.527222 290.842133,625.120361 
	C290.890930,625.307007 290.713928,625.626099 290.259705,626.010681 
z"/>
<path fill="#6BC3C2" opacity="1.000000" stroke="none" 
	d="
M329.129822,578.014587 
	C329.118896,577.967041 329.298676,577.898743 329.569885,577.827087 
	C329.658630,577.813599 329.317780,577.983704 329.129822,578.014587 
z"/>
<path fill="#46B5B5" opacity="1.000000" stroke="none" 
	d="
M340.877625,702.875549 
	C343.785187,696.010742 346.907349,689.226807 349.536957,682.257080 
	C351.928955,675.916992 354.505432,669.509460 355.741730,662.896362 
	C359.250275,644.128662 361.306366,625.054871 365.573273,606.478027 
	C367.713318,597.160828 372.637238,588.188599 377.673126,579.892639 
	C387.968506,562.932251 403.180756,551.629700 422.055084,545.544495 
	C433.917450,541.720032 445.930145,538.356018 457.908661,534.900696 
	C462.138184,533.680603 464.338593,535.965454 463.882660,541.223511 
	C463.423340,546.520386 462.771912,551.811035 461.946289,557.063721 
	C459.393799,573.303040 457.848785,589.810669 453.811035,605.679382 
	C448.465179,626.689148 437.448395,645.029114 423.134247,661.521606 
	C406.160034,681.078918 383.867889,692.368958 361.190308,703.234314 
	C358.991791,704.287720 356.405792,704.532532 353.525940,705.098267 
	C353.052246,705.043884 352.899445,704.888428 353.064789,704.568848 
	C368.857635,695.788269 384.902161,687.998657 399.971466,678.638916 
	C410.672241,671.992432 419.603210,662.857422 427.218597,652.509033 
	C436.359711,640.087402 444.701599,627.232544 449.081573,612.392761 
	C452.357849,601.292358 454.612183,589.866272 456.852936,578.492920 
	C458.300995,571.143127 458.922150,563.629089 459.878540,556.184143 
	C460.684113,549.913269 461.438690,543.635742 462.255890,537.037903 
	C460.495453,537.037903 459.444061,536.792969 458.560059,537.074219 
	C442.015442,542.337219 424.790161,545.351562 409.240356,553.864807 
	C394.813049,561.763367 384.168976,573.050842 376.101654,586.975037 
	C367.625061,601.605591 365.624298,618.128784 362.960144,634.449402 
	C360.861572,647.305115 359.062469,660.276550 355.817535,672.858032 
	C353.010651,683.741333 348.394348,694.166931 340.994690,702.990845 
	C340.955994,702.952026 340.877594,702.875549 340.877625,702.875549 
z"/>
<path fill="#46B5B5" opacity="1.000000" stroke="none" 
	d="
M353.128845,705.121460 
	C349.243927,709.446716 344.096588,710.786499 338.440063,711.581482 
	C336.814941,708.000305 337.211212,705.281616 340.568756,702.999390 
	C340.877594,702.875549 340.955994,702.952026 340.957031,703.358887 
	C340.236237,705.614563 339.514343,707.463379 338.526062,709.994507 
	C343.960785,708.063843 348.430115,706.476135 352.899445,704.888428 
	C352.899445,704.888428 353.052246,705.043884 353.128845,705.121460 
z"/>
<path fill="#000000" opacity="1.000000" stroke="none" 
	d="
M353.064789,704.568848 
	C348.430115,706.476135 343.960785,708.063843 338.526062,709.994507 
	C339.514343,707.463379 340.236237,705.614563 340.995728,703.397705 
	C348.394348,694.166931 353.010651,683.741333 355.817535,672.858032 
	C359.062469,660.276550 360.861572,647.305115 362.960144,634.449402 
	C365.624298,618.128784 367.625061,601.605591 376.101654,586.975037 
	C384.168976,573.050842 394.813049,561.763367 409.240356,553.864807 
	C424.790161,545.351562 442.015442,542.337219 458.560059,537.074219 
	C459.444061,536.792969 460.495453,537.037903 462.255890,537.037903 
	C461.438690,543.635742 460.684113,549.913269 459.878540,556.184143 
	C458.922150,563.629089 458.300995,571.143127 456.852936,578.492920 
	C454.612183,589.866272 452.357849,601.292358 449.081573,612.392761 
	C444.701599,627.232544 436.359711,640.087402 427.218597,652.509033 
	C419.603210,662.857422 410.672241,671.992432 399.971466,678.638916 
	C384.902161,687.998657 368.857635,695.788269 353.064789,704.568848 
z"/>
</svg>